{
  "accessors": [
    {
      "bufferView": 0,
      "componentType": 5125,
      "count": 16200,
      "type": "SCALAR"
    },
    {
      "bufferView": 1,
      "componentType": 5126,
      "count": 3362,
      "max": [
        15.3050308227539,
        35.4330787658691,
        33.4754066467285
      ],
      "min": [
        -17.1259841918945,
        -35.4330711364746,
        0.0
      ],
      "type": "VEC3"
    },
    {
      "bufferView": 2,
      "componentType": 5126,
      "count": 3362,
      "type": "VEC3"
    },
    {
      "bufferView": 3,
      "componentType": 5126,
      "count": 3362,
      "type": "VEC4"
    },
    {
      "bufferView": 4,
      "componentType": 5126,
      "count": 3362,
      "type": "VEC2"
    }
  ],
  "asset": {
    "generator": "Adobe Substance 3D Painter 10.0.1",
    "version": "2.0"
  },
  "bufferViews": [
    {
      "buffer": 0,
      "byteLength": 64800,
      "target": 34963
    },
    {
      "buffer": 0,
      "byteLength": 40344,
      "byteOffset": 64800,
      "target": 34962
    },
    {
      "buffer": 0,
      "byteLength": 40344,
      "byteOffset": 105144,
      "target": 34962
    },
    {
      "buffer": 0,
      "byteLength": 53792,
      "byteOffset": 145488,
      "target": 34962
    },
    {
      "buffer": 0,
      "byteLength": 26896,
      "byteOffset": 199280,
      "target": 34962
    }
  ],
  "buffers": [
    {
      "byteLength": 226176,
      "uri": "ASM - PBR Metallic Roughness.bin"
    }
  ],
  "images": [
    {
      "uri": "DefaultMaterial_baseColor.png"
    },
    {
      "uri": "DefaultMaterial_occlusionRoughnessMetallic.png"
    },
    {
      "uri": "DefaultMaterial_normal.png"
    }
  ],
  "materials": [
    {
      "alphaMode": "OPAQUE",
      "name": "DefaultMaterial",
      "normalTexture": {
        "index": 2
      },
      "occlusionTexture": {
        "index": 1
      },
      "pbrMetallicRoughness": {
        "baseColorTexture": {
          "index": 0
        },
        "metallicRoughnessTexture": {
          "index": 1
        }
      }
    }
  ],
  "meshes": [
    {
      "name": "Box001",
      "primitives": [
        {
          "attributes": {
            "NORMAL": 2,
            "POSITION": 1,
            "TANGENT": 3,
            "TEXCOORD_0": 4
          },
          "indices": 0,
          "material": 0,
          "mode": 4
        }
      ]
    }
  ],
  "nodes": [
    {
      "children": [
        1
      ],
      "name": "RootNode",
      "scale": [
        0.0253999996930361,
        0.0253999996930361,
        0.0253999996930361
      ]
    },
    {
      "children": [
        2
      ],
      "name": "Box001",
      "rotation": [
        -0.70710676908493,
        0.0,
        0.0,
        0.70710676908493
      ],
      "translation": [
        -1.39266204833984,
        0.0,
        0.662210464477539
      ]
    },
    {
      "mesh": 0,
      "name": "Box001"
    }
  ],
  "samplers": [
    {
      "magFilter": 9729,
      "minFilter": 9985,
      "wrapS": 10497,
      "wrapT": 10497
    }
  ],
  "scene": 0,
  "scenes": [
    {
      "name": "Scene",
      "nodes": [
        0
      ]
    }
  ],
  "textures": [
    {
      "sampler": 0,
      "source": 0
    },
    {
      "sampler": 0,
      "source": 1
    },
    {
      "sampler": 0,
      "source": 2
    }
  ]
}