{
  "accessors": [
    {
      "bufferView": 0,
      "componentType": 5125,
      "count": 1140,
      "type": "SCALAR"
    },
    {
      "bufferView": 1,
      "componentType": 5126,
      "count": 640,
      "max": [
        8.27547836303711,
        8.23948287963867,
        11.9161224365234
      ],
      "min": [
        -2.82688474655151,
        -2.86287999153137,
        0.0
      ],
      "type": "VEC3"
    },
    {
      "bufferView": 2,
      "componentType": 5126,
      "count": 640,
      "type": "VEC3"
    },
    {
      "bufferView": 3,
      "componentType": 5126,
      "count": 640,
      "type": "VEC4"
    },
    {
      "bufferView": 4,
      "componentType": 5126,
      "count": 640,
      "type": "VEC2"
    }
  ],
  "asset": {
    "generator": "Adobe Substance 3D Painter 10.0.1",
    "version": "2.0"
  },
  "bufferViews": [
    {
      "buffer": 0,
      "byteLength": 4560,
      "target": 34963
    },
    {
      "buffer": 0,
      "byteLength": 7680,
      "byteOffset": 4560,
      "target": 34962
    },
    {
      "buffer": 0,
      "byteLength": 7680,
      "byteOffset": 12240,
      "target": 34962
    },
    {
      "buffer": 0,
      "byteLength": 10240,
      "byteOffset": 19920,
      "target": 34962
    },
    {
      "buffer": 0,
      "byteLength": 5120,
      "byteOffset": 30160,
      "target": 34962
    }
  ],
  "buffers": [
    {
      "byteLength": 35280,
      "uri": "ASM - PBR Metallic Roughness.bin"
    }
  ],
  "images": [
    {
      "uri": "DefaultMaterial_baseColor.png"
    },
    {
      "uri": "DefaultMaterial_occlusionRoughnessMetallic.png"
    },
    {
      "uri": "DefaultMaterial_normal.png"
    }
  ],
  "materials": [
    {
      "alphaMode": "OPAQUE",
      "name": "DefaultMaterial",
      "normalTexture": {
        "index": 2
      },
      "occlusionTexture": {
        "index": 1
      },
      "pbrMetallicRoughness": {
        "baseColorTexture": {
          "index": 0
        },
        "metallicRoughnessTexture": {
          "index": 1
        }
      }
    }
  ],
  "meshes": [
    {
      "name": "Cylinder007",
      "primitives": [
        {
          "attributes": {
            "NORMAL": 2,
            "POSITION": 1,
            "TANGENT": 3,
            "TEXCOORD_0": 4
          },
          "indices": 0,
          "material": 0,
          "mode": 4
        }
      ]
    }
  ],
  "nodes": [
    {
      "children": [
        1
      ],
      "name": "RootNode",
      "scale": [
        0.0253999996930361,
        0.0253999996930361,
        0.0253999996930361
      ]
    },
    {
      "children": [
        2
      ],
      "name": "Cylinder007",
      "rotation": [
        -0.70710676908493,
        0.0,
        0.0,
        0.70710676908493
      ],
      "scale": [
        1.5,
        1.5,
        1.5
      ],
      "translation": [
        -4.08644580841064,
        -8.29696655273438e-05,
        4.03245306015015
      ]
    },
    {
      "mesh": 0,
      "name": "Cylinder007"
    }
  ],
  "samplers": [
    {
      "magFilter": 9729,
      "minFilter": 9985,
      "wrapS": 10497,
      "wrapT": 10497
    }
  ],
  "scene": 0,
  "scenes": [
    {
      "name": "Scene",
      "nodes": [
        0
      ]
    }
  ],
  "textures": [
    {
      "sampler": 0,
      "source": 0
    },
    {
      "sampler": 0,
      "source": 1
    },
    {
      "sampler": 0,
      "source": 2
    }
  ]
}